<?xml version="1.0" standalone="no"?>
<!DOCTYPE svg PUBLIC "-//W3C//DTD SVG 20010904//EN"
 "http://www.w3.org/TR/2001/REC-SVG-20010904/DTD/svg10.dtd">
<svg version="1.0" xmlns="http://www.w3.org/2000/svg"
 width="260.000000pt" height="260.000000pt" viewBox="0 0 260.000000 260.000000"
 preserveAspectRatio="xMidYMid meet">
<metadata>
Created by potrace 1.11, written by Peter Selinger 2001-2013
</metadata>
<g transform="translate(0.000000,260.000000) scale(0.100000,-0.100000)"
fill="#000000" stroke="none">
<path d="M39 1715 c-1 -5 -2 -192 -3 -415 l-1 -405 45 -5 c25 -3 60 -3 78 -1
29 3 33 6 30 30 -3 23 -8 26 -43 27 -22 1 -43 2 -47 3 -5 1 -8 163 -8 361 l0
360 50 0 c47 0 50 1 48 25 -3 28 -1 28 -85 29 -37 1 -64 -3 -64 -9z"/>
<path d="M2420 1698 c0 -27 2 -28 48 -28 l47 0 -2 -352 c-1 -194 -2 -357 -2
-363 -1 -5 -20 -10 -43 -10 -40 0 -43 -2 -46 -30 l-3 -30 76 3 75 4 0 417 0
418 -75 -1 -75 -1 0 -27z"/>
<path d="M429 1588 c0 -58 0 -536 0 -555 1 -9 17 -13 46 -13 l44 0 -2 308 -2
307 -42 3 -43 3 -1 -53z"/>
<path d="M959 1620 c0 -11 0 -146 0 -300 0 -154 0 -284 0 -290 1 -6 50 -10
125 -10 118 0 127 1 153 24 l28 24 1 249 c1 252 -3 288 -38 309 -7 4 -70 9
-140 11 -123 3 -128 3 -129 -17z m221 -291 l0 -219 -65 0 c-36 0 -65 3 -66 8
-3 24 -4 409 -1 419 3 8 26 12 68 12 l64 -1 0 -219z"/>
<path d="M608 1436 c0 -1 -2 -95 -3 -209 l-2 -208 41 3 41 3 0 163 c-1 138 2
162 15 163 18 2 72 2 83 0 4 -1 7 -75 7 -166 l0 -165 40 0 40 0 0 175 c0 183
-6 216 -44 232 -35 16 -115 8 -131 -13 -13 -18 -13 -18 -12 0 2 16 -5 20 -35
21 -21 1 -39 1 -40 1z"/>
<path d="M1399 1426 c-41 -20 -46 -47 -45 -210 2 -151 2 -155 26 -175 21 -17
39 -20 118 -21 l92 0 0 40 0 40 -79 0 -79 0 1 35 c1 40 10 45 82 44 28 -1 62
0 78 0 l27 1 0 99 c0 90 -2 103 -23 127 -21 25 -31 27 -99 30 -43 1 -86 -3
-99 -10z m124 -75 c13 -1 17 -10 17 -46 l0 -45 -54 0 -54 0 0 44 c0 47 8 54
53 50 11 -1 28 -3 38 -3z"/>
<path d="M1667 1433 c-3 -5 12 -78 34 -163 22 -85 41 -164 43 -175 15 -75 14
-75 72 -75 50 0 54 2 60 28 4 15 26 106 50 202 24 96 44 178 44 181 0 7 -77 6
-83 -1 -2 -3 -11 -36 -19 -75 -53 -237 -52 -231 -59 -200 -4 17 -19 84 -34
150 -15 66 -29 122 -31 124 -7 8 -72 12 -77 4z"/>
<path d="M2029 1432 c-1 -4 -2 -98 -3 -209 l-1 -203 41 0 42 0 0 143 c0 219
-6 195 52 191 l50 -3 0 43 c0 43 0 43 -34 41 -19 -1 -41 -7 -49 -14 -12 -9
-16 -9 -19 0 -4 13 -77 23 -79 11z"/>
</g>
</svg>
